<svg width="42" height="38" viewBox="0 0 42 38" fill="none" xmlns="http://www.w3.org/2000/svg">
<g id="it-&#208;&#191;&#209;&#128;&#208;&#190;&#208;&#181;&#208;&#186;&#209;&#130;&#209;&#139;">
<path id="Vector" d="M26.7459 4.53164C27.8358 4.88408 28.3977 5.95478 28.001 6.92311L17.9457 31.4695C17.549 32.4378 16.3439 32.9371 15.2541 32.5846C14.1642 32.2322 13.6023 31.1615 13.9989 30.1932L24.0543 5.6468C24.451 4.67847 25.6561 4.1792 26.7459 4.53164ZM5.06985 19.0109L12.4945 25.6076C13.3146 26.3363 13.3146 27.5176 12.4945 28.2463C11.6744 28.9749 10.3447 28.9749 9.52462 28.2463L0.615076 20.3302C-0.205025 19.6016 -0.205025 18.4202 0.615076 17.6915L9.52462 9.77545C10.3447 9.0468 11.6744 9.0468 12.4945 9.77545C13.3146 10.5041 13.3146 11.6855 12.4945 12.4141L5.06985 19.0109ZM36.9302 19.0109L29.5055 12.4141C28.6854 11.6855 28.6854 10.5041 29.5055 9.77545C30.3256 9.0468 31.6553 9.0468 32.4754 9.77545L41.3849 17.6915C42.205 18.4202 42.205 19.6016 41.3849 20.3302L32.4754 28.2463C31.6553 28.9749 30.3256 28.9749 29.5055 28.2463C28.6854 27.5176 28.6854 26.3363 29.5055 25.6076L36.9302 19.0109Z" fill="white"/>
</g>
</svg>
