<svg width="42" height="38" viewBox="0 0 42 38" fill="none" xmlns="http://www.w3.org/2000/svg">
<g id="&#208;&#180;&#208;&#184;&#208;&#183;&#208;&#176;&#208;&#185;&#208;&#189;">
<path id="Vector" d="M21 34.8334C11.3575 34.8334 3.5 27.7242 3.5 19C3.5 10.2759 11.3575 3.16669 21 3.16669C30.6425 3.16669 38.5 9.56335 38.5 17.4167C38.5 22.6575 33.7925 26.9167 28 26.9167H24.9025C24.4125 26.9167 24.0275 27.265 24.0275 27.7084C24.0275 27.8984 24.115 28.0725 24.255 28.2309C24.9725 28.975 25.375 29.9092 25.375 30.875C25.375 31.9248 24.9141 32.9317 24.0936 33.674C23.2731 34.4163 22.1603 34.8334 21 34.8334ZM21 6.33335C13.2825 6.33335 7 12.0175 7 19C7 25.9825 13.2825 31.6667 21 31.6667C21.49 31.6667 21.875 31.3184 21.875 30.875C21.8696 30.6697 21.7826 30.4729 21.63 30.3209C20.9125 29.5925 20.5275 28.6584 20.5275 27.7084C20.5275 26.6585 20.9884 25.6517 21.8089 24.9094C22.6294 24.1671 23.7422 23.75 24.9025 23.75H28C31.8675 23.75 35 20.9159 35 17.4167C35 11.305 28.7175 6.33335 21 6.33335Z" fill="white"/>
<path id="Vector_2" d="M11.375 20.5833C12.8247 20.5833 14 19.52 14 18.2083C14 16.8966 12.8247 15.8333 11.375 15.8333C9.92525 15.8333 8.75 16.8966 8.75 18.2083C8.75 19.52 9.92525 20.5833 11.375 20.5833Z" fill="white"/>
<path id="Vector_3" d="M16.625 14.25C18.0747 14.25 19.25 13.1867 19.25 11.875C19.25 10.5633 18.0747 9.5 16.625 9.5C15.1753 9.5 14 10.5633 14 11.875C14 13.1867 15.1753 14.25 16.625 14.25Z" fill="white"/>
<path id="Vector_4" d="M25.6669 14.25C27.1166 14.25 28.2919 13.1867 28.2919 11.875C28.2919 10.5633 27.1166 9.5 25.6669 9.5C24.2171 9.5 23.0419 10.5633 23.0419 11.875C23.0419 13.1867 24.2171 14.25 25.6669 14.25Z" fill="white"/>
<path id="Vector_5" d="M30.65 20.2076C32.0998 20.2076 33.275 19.1443 33.275 17.8326C33.275 16.521 32.0998 15.4576 30.65 15.4576C29.2003 15.4576 28.025 16.521 28.025 17.8326C28.025 19.1443 29.2003 20.2076 30.65 20.2076Z" fill="white"/>
</g>
</svg>
