<svg width="42" height="38" viewBox="0 0 42 38" fill="none" xmlns="http://www.w3.org/2000/svg">
<g id="&#208;&#180;&#208;&#190;&#208;&#186;&#209;&#131;&#208;&#188;&#208;&#181;&#208;&#189;&#209;&#130;&#209;&#139;">
<path id="&#208;&#180;&#208;&#190;&#208;&#186;&#209;&#131;&#208;&#188;&#208;&#181;&#208;&#189;&#209;&#130;&#209;&#139;_2" d="M38.9268 13.186C38.906 13.0115 38.866 12.8395 38.8073 12.673V12.502C38.7115 12.3066 38.5837 12.1271 38.4288 11.97L26.4776 0.57C26.3129 0.422211 26.1247 0.300354 25.9199 0.209C25.8604 0.200944 25.8001 0.200944 25.7406 0.209C25.5383 0.0983084 25.3148 0.027254 25.0833 0H17.0162C15.4314 0 13.9115 0.600534 12.7908 1.66949C11.6702 2.73845 11.0406 4.18827 11.0406 5.7V7.6H9.04873C7.4639 7.6 5.94398 8.20053 4.82334 9.26949C3.70269 10.3384 3.07312 11.7883 3.07312 13.3V32.3C3.07312 33.8117 3.70269 35.2616 4.82334 36.3305C5.94398 37.3995 7.4639 38 9.04873 38H24.9837C26.5685 38 28.0884 37.3995 29.2091 36.3305C30.3297 35.2616 30.9593 33.8117 30.9593 32.3V30.4H32.9512C34.536 30.4 36.0559 29.7995 37.1766 28.7305C38.2972 27.6616 38.9268 26.2117 38.9268 24.7V13.3C38.9268 13.3 38.9268 13.3 38.9268 13.186ZM26.9756 6.479L32.1345 11.4H28.9674C28.4392 11.4 27.9325 11.1998 27.559 10.8435C27.1854 10.4872 26.9756 10.0039 26.9756 9.5V6.479ZM26.9756 32.3C26.9756 32.8039 26.7657 33.2872 26.3922 33.6435C26.0186 33.9998 25.512 34.2 24.9837 34.2H9.04873C8.52045 34.2 8.01381 33.9998 7.64027 33.6435C7.26672 33.2872 7.05686 32.8039 7.05686 32.3V13.3C7.05686 12.7961 7.26672 12.3128 7.64027 11.9565C8.01381 11.6002 8.52045 11.4 9.04873 11.4H11.0406V24.7C11.0406 26.2117 11.6702 27.6616 12.7908 28.7305C13.9115 29.7995 15.4314 30.4 17.0162 30.4H26.9756V32.3ZM34.943 24.7C34.943 25.2039 34.7332 25.6872 34.3596 26.0435C33.9861 26.3998 33.4794 26.6 32.9512 26.6H17.0162C16.4879 26.6 15.9813 26.3998 15.6077 26.0435C15.2342 25.6872 15.0243 25.2039 15.0243 24.7V5.7C15.0243 5.19609 15.2342 4.71282 15.6077 4.3565C15.9813 4.00018 16.4879 3.8 17.0162 3.8H22.9918V9.5C22.9918 11.0117 23.6214 12.4616 24.742 13.5305C25.8627 14.5995 27.3826 15.2 28.9674 15.2H34.943V24.7Z" fill="white"/>
</g>
</svg>
