<svg width="42" height="38" viewBox="0 0 42 38" fill="none" xmlns="http://www.w3.org/2000/svg">
<g id="&#208;&#180;&#208;&#190;&#208;&#188;">
<path id="Vector" d="M37.8 34.1359V13.1381L21 3.86418L4.2 13.1381V34.1359H12.6V28.8227C12.6 26.773 13.485 24.8073 15.0603 23.3579C16.6356 21.9086 18.7722 21.0944 21 21.0944C23.2278 21.0944 25.3644 21.9086 26.9397 23.3579C28.515 24.8073 29.4 26.773 29.4 28.8227V34.1359H37.8ZM25.2 38V28.8227C25.2 27.7978 24.7575 26.815 23.9698 26.0903C23.1822 25.3656 22.1139 24.9585 21 24.9585C19.8861 24.9585 18.8178 25.3656 18.0302 26.0903C17.2425 26.815 16.8 27.7978 16.8 28.8227V38H4.2C3.08609 38 2.0178 37.5929 1.23015 36.8682C0.442499 36.1436 1.94438e-10 35.1607 1.94437e-10 34.1359V13.1381C-6.97776e-06 12.4708 0.187804 11.8149 0.545145 11.2342C0.902486 10.6536 1.41718 10.1679 2.0391 9.82462L18.8391 0.550677C19.4918 0.190343 20.2388 0 21 0C21.7612 0 22.5082 0.190343 23.1609 0.550677L39.9609 9.82462C40.5828 10.1679 41.0975 10.6536 41.4549 11.2342C41.8122 11.8149 42 12.4708 42 13.1381V34.1359C42 35.1607 41.5575 36.1436 40.7698 36.8682C39.9822 37.5929 38.9139 38 37.8 38H25.2Z" fill="white"/>
</g>
</svg>
