<svg width="42" height="38" viewBox="0 0 42 38" fill="none" xmlns="http://www.w3.org/2000/svg">
<g id="&#208;&#184;&#208;&#189;&#209;&#132; &#208;&#177;&#208;&#181;&#208;&#183;&#208;&#190;&#208;&#191;&#208;&#176;&#209;&#129;&#208;&#189;&#208;&#190;&#209;&#129;&#209;&#130;&#209;&#140;">
<path id="shield" d="M21 37.9995C20.3234 38.0101 19.6559 37.844 19.0638 37.5177L18.483 37.1901C13.9587 34.6423 10.1948 30.9451 7.57563 26.4759C4.95642 22.0067 3.57576 16.9257 3.57462 11.7517V11.4819C3.56848 10.7995 3.74449 10.1276 4.08467 9.53511C4.42484 8.94258 4.91697 8.45057 5.51077 8.10937L19.0638 0.51638C19.6525 0.178093 20.3203 0 21 0C21.6797 0 22.3475 0.178093 22.9361 0.51638L36.4892 8.10937C37.083 8.45057 37.5752 8.94258 37.9153 9.53511C38.2555 10.1276 38.4315 10.7995 38.4254 11.4819V11.7517C38.4204 16.9295 37.0339 22.0131 34.4076 26.4826C31.7814 30.9522 28.0097 34.6473 23.4783 37.1901L22.8974 37.5177C22.3169 37.8375 21.6635 38.0034 21 37.9995ZM21 3.8889L7.44692 11.4819V11.7517C7.45018 16.2441 8.65315 20.6549 10.9326 24.5322C13.212 28.4096 16.486 31.6141 20.4192 33.8176L21 34.1452L21.5808 33.8176C25.514 31.6141 28.788 28.4096 31.0674 24.5322C33.3468 20.6549 34.5498 16.2441 34.5531 11.7517V11.4819L21 3.8889Z" fill="white"/>
</g>
</svg>
