<svg width="42" height="38" viewBox="0 0 42 38" fill="none" xmlns="http://www.w3.org/2000/svg">
<g id="&#208;&#184;&#208;&#189;&#209;&#132;&#209;&#128;&#208;&#176;&#209;&#129;&#209;&#130;&#209;&#128;&#209;&#131;&#208;&#186;&#209;&#130;&#209;&#131;&#209;&#128;&#208;&#176;">
<path id="Vector" d="M4.2 26.6V34.2H12.6V26.6H4.2ZM29.4 20.9H12.6C12.043 20.9 11.5089 21.1002 11.1151 21.4565C10.7212 21.8128 10.5 22.2961 10.5 22.8H12.6C13.7139 22.8 14.7822 23.2004 15.5698 23.913C16.3575 24.6256 16.8 25.5922 16.8 26.6V34.2C16.8 35.2078 16.3575 36.1744 15.5698 36.887C14.7822 37.5996 13.7139 38 12.6 38H4.2C3.08609 38 2.0178 37.5996 1.23015 36.887C0.442499 36.1744 0 35.2078 0 34.2V26.6C0 25.5922 0.442499 24.6256 1.23015 23.913C2.0178 23.2004 3.08609 22.8 4.2 22.8H6.3C6.3 21.2883 6.96375 19.8384 8.14523 18.7695C9.32671 17.7005 10.9291 17.1 12.6 17.1H18.9V15.2H16.8C15.6861 15.2 14.6178 14.7996 13.8302 14.087C13.0425 13.3744 12.6 12.4078 12.6 11.4V3.8C12.6 2.79218 13.0425 1.82563 13.8302 1.11299C14.6178 0.400356 15.6861 0 16.8 0L25.2 0C26.3139 0 27.3822 0.400356 28.1698 1.11299C28.9575 1.82563 29.4 2.79218 29.4 3.8V11.4C29.4 12.4078 28.9575 13.3744 28.1698 14.087C27.3822 14.7996 26.3139 15.2 25.2 15.2H23.1V17.1H29.4C31.0709 17.1 32.6733 17.7005 33.8548 18.7695C35.0363 19.8384 35.7 21.2883 35.7 22.8H37.8C38.9139 22.8 39.9822 23.2004 40.7698 23.913C41.5575 24.6256 42 25.5922 42 26.6V34.2C42 35.2078 41.5575 36.1744 40.7698 36.887C39.9822 37.5996 38.9139 38 37.8 38H29.4C28.2861 38 27.2178 37.5996 26.4302 36.887C25.6425 36.1744 25.2 35.2078 25.2 34.2V26.6C25.2 25.5922 25.6425 24.6256 26.4302 23.913C27.2178 23.2004 28.2861 22.8 29.4 22.8H31.5C31.5 22.2961 31.2787 21.8128 30.8849 21.4565C30.4911 21.1002 29.957 20.9 29.4 20.9ZM16.8 3.8V11.4H25.2V3.8H16.8ZM29.4 26.6V34.2H37.8V26.6H29.4Z" fill="white"/>
</g>
</svg>
