<svg width="23" height="22" viewBox="0 0 23 22" fill="none" xmlns="http://www.w3.org/2000/svg">
<g id="&#208;&#184;&#209;&#129;&#209;&#130;&#208;&#190;&#209;&#128;&#208;&#184;&#209;&#143;">
<path id="Vector" d="M8.21429 19.8V22H4.92857V19.8H0V0H18.0714C19.3786 0 20.6322 0.347678 21.5565 0.966548C22.4807 1.58542 23 2.42479 23 3.3V16.5C23 17.3752 22.4807 18.2146 21.5565 18.8335C20.6322 19.4523 19.3786 19.8 18.0714 19.8H8.21429ZM4.92857 2.2H3.28571V17.6H4.92857V2.2ZM8.21429 2.2V17.6H18.0714C18.5071 17.6 18.925 17.4841 19.2331 17.2778C19.5412 17.0715 19.7143 16.7917 19.7143 16.5V3.3C19.7143 3.00826 19.5412 2.72847 19.2331 2.52218C18.925 2.31589 18.5071 2.2 18.0714 2.2H8.21429ZM9.85714 4.4H18.0714V6.6H9.85714V4.4ZM9.85714 7.7H18.0714V9.9H9.85714V7.7Z" fill="white"/>
</g>
</svg>
