<svg width="42" height="38" viewBox="0 0 42 38" fill="none" xmlns="http://www.w3.org/2000/svg">
<g id="&#208;&#186;&#208;&#190;&#208;&#188;&#208;&#188;&#209;&#131;&#208;&#189;&#208;&#184;&#208;&#186;&#208;&#176;&#209;&#134;&#208;&#184;&#209;&#143;">
<path id="Vector" d="M38.5715 18.6122V29.4694C38.5715 30.2921 38.2103 31.0811 37.5673 31.6629C36.9243 32.2446 36.0522 32.5714 35.1429 32.5714H31.7143C30.805 32.5714 29.933 32.2446 29.29 31.6629C28.647 31.0811 28.2858 30.2921 28.2858 29.4694V21.7143C28.2858 20.8916 28.647 20.1026 29.29 19.5208C29.933 18.9391 30.805 18.6122 31.7143 18.6122H35.1429C35.1429 15.3214 33.698 12.1653 31.1261 9.83835C28.5542 7.51137 25.0659 6.20408 21.4286 6.20408C17.7914 6.20408 14.3031 7.51137 11.7312 9.83835C9.15923 12.1653 7.71434 15.3214 7.71434 18.6122H11.1429C12.0522 18.6122 12.9243 18.9391 13.5673 19.5208C14.2103 20.1026 14.5715 20.8916 14.5715 21.7143V29.4694C14.5715 30.2921 14.2103 31.0811 13.5673 31.6629C12.9243 32.2446 12.0522 32.5714 11.1429 32.5714H7.71434C6.80502 32.5714 5.93295 32.2446 5.28997 31.6629C4.64699 31.0811 4.28577 30.2921 4.28577 29.4694V18.6122C4.28577 10.046 11.9606 3.10204 21.4286 3.10204C30.8966 3.10204 38.5715 10.046 38.5715 18.6122Z" fill="white"/>
</g>
</svg>
