<svg width="19" height="18" viewBox="0 0 19 18" fill="none" xmlns="http://www.w3.org/2000/svg">
<g id="&#208;&#190;&#209;&#134;&#208;&#181;&#208;&#189;&#208;&#186;&#208;&#176;">
<path id="Vector" d="M12.0572 9.00086L18.4481 2.94467C18.6207 2.78667 18.7585 2.59768 18.8532 2.38872C18.948 2.17976 18.9978 1.95502 18.9999 1.72761C19.002 1.50019 18.9563 1.27466 18.8654 1.06417C18.7745 0.853686 18.6402 0.662457 18.4705 0.501645C18.3007 0.340833 18.0989 0.213658 17.8767 0.127541C17.6545 0.0414234 17.4165 -0.0019115 17.1764 6.46668e-05C16.9364 0.00204084 16.6991 0.0492885 16.4786 0.139051C16.258 0.228813 16.0585 0.359292 15.8917 0.522874L9.4991 6.57735L3.10826 0.522874C2.94149 0.359292 2.742 0.228813 2.52143 0.139051C2.30086 0.0492885 2.06363 0.00204084 1.82358 6.46668e-05C1.58354 -0.0019115 1.34548 0.0414234 1.12329 0.127541C0.901113 0.213658 0.699261 0.340833 0.529514 0.501645C0.359768 0.662457 0.225528 0.853686 0.134626 1.06417C0.0437247 1.27466 -0.0020177 1.50019 6.82594e-05 1.72761C0.00215422 1.95502 0.0520268 2.17976 0.146776 2.38872C0.241525 2.59768 0.379252 2.78667 0.551923 2.94467L6.94276 8.99914L0.551923 15.0553C0.379252 15.2133 0.241525 15.4023 0.146776 15.6113C0.0520268 15.8202 0.00215422 16.045 6.82594e-05 16.2724C-0.0020177 16.4998 0.0437247 16.7253 0.134626 16.9358C0.225528 17.1463 0.359768 17.3375 0.529514 17.4984C0.699261 17.6592 0.901113 17.7863 1.12329 17.8725C1.34548 17.9586 1.58354 18.0019 1.82358 17.9999C2.06363 17.998 2.30086 17.9507 2.52143 17.861C2.742 17.7712 2.94149 17.6407 3.10826 17.4771L9.4991 11.4226L15.8917 17.4771C16.0585 17.6407 16.258 17.7712 16.4786 17.861C16.6991 17.9507 16.9364 17.998 17.1764 17.9999C17.4165 18.0019 17.6545 17.9586 17.8767 17.8725C18.0989 17.7863 18.3007 17.6592 18.4705 17.4984C18.6402 17.3375 18.7745 17.1463 18.8654 16.9358C18.9563 16.7253 19.002 16.4998 18.9999 16.2724C18.9978 16.045 18.948 15.8202 18.8532 15.6113C18.7585 15.4023 18.6207 15.2133 18.4481 15.0553L12.0572 9.00086Z" fill="white"/>
</g>
</svg>
