<svg width="42" height="38" viewBox="0 0 42 38" fill="none" xmlns="http://www.w3.org/2000/svg">
<g id="&#208;&#190;&#208;&#177;&#209;&#137;&#208;&#184;&#208;&#181; &#208;&#178;&#208;&#190;&#208;&#191;&#209;&#128;&#208;&#190;&#209;&#129;&#209;&#139;">
<path id="Vector" d="M21 38C9.4017 38 0 29.4937 0 19C0 8.5063 9.4017 0 21 0C32.5983 0 42 8.5063 42 19C42 29.4937 32.5983 38 21 38ZM21 34.2C25.4556 34.2 29.7288 32.5986 32.8794 29.748C36.03 26.8975 37.8 23.0313 37.8 19C37.8 14.9687 36.03 11.1025 32.8794 8.25198C29.7288 5.40142 25.4556 3.8 21 3.8C16.5444 3.8 12.2712 5.40142 9.12061 8.25198C5.96999 11.1025 4.2 14.9687 4.2 19C4.2 23.0313 5.96999 26.8975 9.12061 29.748C12.2712 32.5986 16.5444 34.2 21 34.2ZM21 28.5C20.443 28.5 19.9089 28.2998 19.5151 27.9435C19.1212 27.5872 18.9 27.1039 18.9 26.6C18.9 26.0961 19.1212 25.6128 19.5151 25.2565C19.9089 24.9002 20.443 24.7 21 24.7C21.557 24.7 22.0911 24.9002 22.4849 25.2565C22.8787 25.6128 23.1 26.0961 23.1 26.6C23.1 27.1039 22.8787 27.5872 22.4849 27.9435C22.0911 28.2998 21.557 28.5 21 28.5ZM23.6796 22.3858C23.2407 22.6962 22.6835 22.8362 22.1306 22.7749C21.5777 22.7136 21.0743 22.4561 20.7312 22.059C20.3881 21.6619 20.2334 21.1578 20.3012 20.6575C20.3689 20.1572 20.6535 19.7018 21.0924 19.3914L21.9198 18.8062C22.2473 18.5763 22.5214 18.2901 22.7264 17.9641C22.9314 17.6381 23.0632 17.2788 23.1144 16.9066C23.1656 16.5344 23.1351 16.1568 23.0246 15.7953C22.9142 15.4338 22.7259 15.0956 22.4707 14.8C22.2155 14.5045 21.8983 14.2574 21.5374 14.073C21.1764 13.8886 20.7788 13.7705 20.3673 13.7254C19.9558 13.6803 19.5385 13.7091 19.1393 13.8102C18.7401 13.9113 18.3669 14.0827 18.0411 14.3146L17.2137 14.8998C16.9974 15.0619 16.7473 15.183 16.4783 15.2561C16.2093 15.3291 15.9268 15.3526 15.6475 15.3252C15.3683 15.2977 15.098 15.2199 14.8526 15.0962C14.6073 14.9725 14.3918 14.8056 14.219 14.6053C14.0462 14.405 13.9195 14.1753 13.8466 13.9299C13.7736 13.6845 13.7558 13.4284 13.7942 13.1766C13.8326 12.9249 13.9264 12.6827 14.0701 12.4643C14.2138 12.246 14.4044 12.0559 14.6307 11.9054L15.456 11.3202C16.9921 10.2343 18.942 9.74491 20.8769 9.95977C22.8118 10.1746 24.5731 11.0761 25.7733 12.4659C26.9735 13.8557 27.5144 15.6199 27.2769 17.3705C27.0395 19.1211 26.0431 20.7147 24.507 21.8006L23.6796 22.3858Z" fill="white"/>
</g>
</svg>
