<svg width="44" height="31" viewBox="0 0 44 31" fill="none" xmlns="http://www.w3.org/2000/svg">
<g id="&#208;&#191;&#208;&#190;&#209;&#135;&#209;&#130;&#208;&#176;">
<path id="Vector" d="M40.4298 0.183788L23.4534 15.7657C23.0595 16.1274 22.5503 16.3273 22.0226 16.3273C21.4949 16.3273 20.9856 16.1274 20.5918 15.7657L3.5444 0.192645C3.95137 0.0648062 4.37452 -0.000115427 4.8 1.81798e-06H39.2C39.6164 -0.00038677 40.0307 0.0615214 40.4298 0.183788ZM43.3452 3.25057C43.4463 3.627 43.5 4.02114 43.5 4.42857V26.5714C43.5 27.746 43.047 28.8724 42.2406 29.7029C41.4342 30.5334 40.3404 31 39.2 31H4.8C3.65957 31 2.56585 30.5334 1.75944 29.7029C0.953035 28.8724 0.5 27.746 0.5 26.5714V4.42857C0.5 4.01893 0.55375 3.62257 0.6548 3.24614L17.7301 19.0739C18.9116 20.1583 20.4389 20.7575 22.0215 20.7575C23.6041 20.7575 25.1314 20.1583 26.3129 19.0739L43.3452 3.25057Z" fill="white"/>
</g>
</svg>
