<svg width="34" height="34" viewBox="0 0 34 34" fill="none" xmlns="http://www.w3.org/2000/svg">
<g id="&#208;&#191;&#208;&#190;&#208;&#187;&#209;&#140;&#208;&#183;&#208;&#190;&#208;&#178;&#208;&#176;&#209;&#130;&#208;&#181;&#208;&#187;&#209;&#140;">
<path id="Vector" d="M17 34C7.6109 34 0 26.3891 0 17C0 7.6109 7.6109 0 17 0C26.3891 0 34 7.6109 34 17C34 26.3891 26.3891 34 17 34ZM17 30.6C20.6069 30.6 24.0662 29.1671 26.6167 26.6167C29.1671 24.0662 30.6 20.6069 30.6 17C30.6 13.3931 29.1671 9.93384 26.6167 7.38335C24.0662 4.83285 20.6069 3.4 17 3.4C13.3931 3.4 9.93384 4.83285 7.38335 7.38335C4.83285 9.93384 3.4 13.3931 3.4 17C3.4 20.6069 4.83285 24.0662 7.38335 26.6167C9.93384 29.1671 13.3931 30.6 17 30.6ZM17 6.8C18.8035 6.8 20.5331 7.51643 21.8083 8.79167C23.0836 10.0669 23.8 11.7965 23.8 13.6V17C23.8 18.8035 23.0836 20.5331 21.8083 21.8083C20.5331 23.0836 18.8035 23.8 17 23.8C15.1965 23.8 13.4669 23.0836 12.1917 21.8083C10.9164 20.5331 10.2 18.8035 10.2 17V13.6C10.2 11.7965 10.9164 10.0669 12.1917 8.79167C13.4669 7.51643 15.1965 6.8 17 6.8ZM17 10.2C16.0983 10.2 15.2335 10.5582 14.5958 11.1958C13.9582 11.8335 13.6 12.6983 13.6 13.6V17C13.6 17.9017 13.9582 18.7665 14.5958 19.4042C15.2335 20.0418 16.0983 20.4 17 20.4C17.9017 20.4 18.7665 20.0418 19.4042 19.4042C20.0418 18.7665 20.4 17.9017 20.4 17V13.6C20.4 12.6983 20.0418 11.8335 19.4042 11.1958C18.7665 10.5582 17.9017 10.2 17 10.2ZM10.047 28.6892C9.06777 28.1059 8.16542 27.4023 7.361 26.5948C8.37076 25.4082 9.65774 24.4891 11.1078 23.919C11.3168 23.8298 11.5416 23.7835 11.7688 23.7826C11.996 23.7818 12.2211 23.8265 12.4308 23.9142C12.6404 24.0019 12.8304 24.1307 12.9894 24.293C13.1484 24.4553 13.2733 24.6479 13.3566 24.8593C13.4399 25.0707 13.48 25.2967 13.4745 25.5239C13.4689 25.7511 13.4179 25.9748 13.3245 26.1819C13.231 26.3891 13.0969 26.5753 12.9302 26.7298C12.7635 26.8842 12.5676 27.0036 12.3539 27.081C11.4495 27.438 10.6675 27.9956 10.047 28.6892ZM23.8918 28.7266C23.2336 27.9985 22.4121 27.4369 21.4948 27.0878C21.2798 27.0132 21.082 26.8962 20.9131 26.7437C20.7442 26.5912 20.6076 26.4064 20.5114 26.2002C20.4152 25.9939 20.3614 25.7705 20.3532 25.5431C20.345 25.3157 20.3826 25.0889 20.4636 24.8763C20.5447 24.6636 20.6676 24.4694 20.8251 24.3052C20.9826 24.1409 21.1714 24.01 21.3805 23.9201C21.5895 23.8302 21.8145 23.7831 22.042 23.7818C22.2696 23.7804 22.4951 23.8248 22.7052 23.9122C24.2077 24.4836 25.5427 25.4229 26.588 26.6441C25.7797 27.4481 24.8739 28.1477 23.8918 28.7266Z" fill="white"/>
</g>
</svg>
