<svg width="42" height="38" viewBox="0 0 42 38" fill="none" xmlns="http://www.w3.org/2000/svg">
<g id="&#209;&#128;&#208;&#176;&#208;&#177;&#208;&#190;&#209;&#135;&#208;&#181;&#208;&#181; &#208;&#188;&#208;&#181;&#209;&#129;&#209;&#130;&#208;&#190;">
<path id="Vector" d="M40.5 16.2857H36V1.35714C36 0.997206 35.842 0.652012 35.5607 0.397498C35.2794 0.142984 34.8978 0 34.5 0H28.5C28.1022 0 27.7206 0.142984 27.4393 0.397498C27.158 0.652012 27 0.997206 27 1.35714V16.2857H24C24 15.9258 23.842 15.5806 23.5607 15.3261C23.2794 15.0716 22.8978 14.9286 22.5 14.9286C22.1022 14.9286 21.7206 15.0716 21.4393 15.3261C21.158 15.5806 21 15.9258 21 16.2857H15V13.5714H22.5C22.8978 13.5714 23.2794 13.4284 23.5607 13.1739C23.842 12.9194 24 12.5742 24 12.2143V1.35714C24 0.997206 23.842 0.652012 23.5607 0.397498C23.2794 0.142984 22.8978 0 22.5 0H4.5C4.10218 0 3.72064 0.142984 3.43934 0.397498C3.15804 0.652012 3 0.997206 3 1.35714V12.2143C3 12.5742 3.15804 12.9194 3.43934 13.1739C3.72064 13.4284 4.10218 13.5714 4.5 13.5714H12V16.2857H1.5C1.10218 16.2857 0.720644 16.4287 0.43934 16.6832C0.158035 16.9377 0 17.2829 0 17.6429C0 18.0028 0.158035 18.348 0.43934 18.6025C0.720644 18.857 1.10218 19 1.5 19H3V36.6429C3 37.0028 3.15804 37.348 3.43934 37.6025C3.72064 37.857 4.10218 38 4.5 38C4.89782 38 5.27936 37.857 5.56066 37.6025C5.84196 37.348 6 37.0028 6 36.6429V19H21V36.6429C21 37.0028 21.158 37.348 21.4393 37.6025C21.7206 37.857 22.1022 38 22.5 38H37.5C37.8978 38 38.2794 37.857 38.5607 37.6025C38.842 37.348 39 37.0028 39 36.6429V19H40.5C40.8978 19 41.2794 18.857 41.5607 18.6025C41.842 18.348 42 18.0028 42 17.6429C42 17.2829 41.842 16.9377 41.5607 16.6832C41.2794 16.4287 40.8978 16.2857 40.5 16.2857ZM6 2.71429H21V10.8571H6V2.71429ZM30 2.71429H33V16.2857H30V2.71429ZM24 25.7857H36V35.2857H24V25.7857ZM36 23.0714H24V19H36V23.0714Z" fill="white"/>
<path id="Vector_2" d="M27 28.5C26.6022 28.5 26.2206 28.643 25.9393 28.8975C25.658 29.152 25.5 29.4972 25.5 29.8571V31.2143C25.5 31.5742 25.658 31.9194 25.9393 32.1739C26.2206 32.4284 26.6022 32.5714 27 32.5714C27.3978 32.5714 27.7794 32.4284 28.0607 32.1739C28.342 31.9194 28.5 31.5742 28.5 31.2143V29.8571C28.5 29.4972 28.342 29.152 28.0607 28.8975C27.7794 28.643 27.3978 28.5 27 28.5Z" fill="white"/>
</g>
</svg>
