<svg width="42" height="38" viewBox="0 0 42 38" fill="none" xmlns="http://www.w3.org/2000/svg">
<g id="&#209;&#129;&#208;&#176;&#208;&#185;&#209;&#130;&#209;&#139; &#208;&#184; &#208;&#191;&#208;&#190;&#209;&#128;&#209;&#130;&#208;&#176;&#208;&#187;&#209;&#139;">
<path id="Vector" d="M7.44365 19.7283C7.86789 19.3454 8.44262 19.1304 9.0418 19.1304C9.64099 19.1304 10.2157 19.3454 10.64 19.7283C10.8495 19.9177 11.0158 20.1426 11.1293 20.3902C11.2427 20.6378 11.3011 20.9032 11.3011 21.1712C11.3011 21.4392 11.2427 21.7046 11.1293 21.9522C11.0158 22.1998 10.8495 22.4247 10.64 22.6141L5.84549 26.946C5.42597 27.3248 5.09314 27.7748 4.86605 28.2702C4.63896 28.7655 4.52207 29.2966 4.52207 29.8328C4.52207 30.3691 4.63896 30.9002 4.86605 31.3955C5.09314 31.8909 5.42597 32.3409 5.84549 32.7197C6.69397 33.4854 7.84343 33.9155 9.0418 33.9155C10.2402 33.9155 11.3896 33.4854 12.2381 32.7197L23.4229 22.6141C23.6325 22.4247 23.7988 22.1998 23.9122 21.9522C24.0256 21.7046 24.084 21.4392 24.084 21.1712C24.084 20.9032 24.0256 20.6378 23.9122 20.3902C23.7988 20.1426 23.6325 19.9177 23.4229 19.7283C23.213 19.5389 23.0464 19.3138 22.9328 19.066C22.8191 18.8183 22.7606 18.5526 22.7606 18.2844C22.7606 18.0161 22.8191 17.7504 22.9328 17.5027C23.0464 17.2549 23.213 17.0298 23.4229 16.8404C23.8471 16.4575 24.4219 16.2425 25.0211 16.2425C25.6202 16.2425 26.195 16.4575 26.6192 16.8404C27.2487 17.4087 27.7481 18.0837 28.0888 18.8268C28.4295 19.57 28.6049 20.3666 28.6049 21.1712C28.6049 21.9758 28.4295 22.7724 28.0888 23.5156C27.7481 24.2587 27.2487 24.9338 26.6192 25.502L15.4321 35.6076C13.7354 37.1396 11.4364 38 9.03947 38C6.64254 38 4.34349 37.1396 2.64683 35.6076C1.8078 34.8499 1.14214 33.95 0.687959 32.9593C0.23378 31.9685 0 30.9065 0 29.8339C0 28.7613 0.23378 27.6993 0.687959 26.7085C1.14214 25.7178 1.8078 24.8179 2.64683 24.0602L7.44365 19.7262V19.7283ZM34.554 18.2717C34.1298 18.6546 33.555 18.8696 32.9559 18.8696C32.3567 18.8696 31.7819 18.6546 31.3577 18.2717C31.1481 18.0823 30.9819 17.8574 30.8684 17.6098C30.755 17.3622 30.6966 17.0968 30.6966 16.8288C30.6966 16.5608 30.755 16.2954 30.8684 16.0478C30.9819 15.8002 31.1481 15.5753 31.3577 15.3859L36.1522 11.054C36.5717 10.6752 36.9045 10.2252 37.1316 9.72984C37.3587 9.23447 37.4756 8.70345 37.4756 8.16716C37.4756 7.63087 37.3587 7.09984 37.1316 6.60447C36.9045 6.10911 36.5717 5.65913 36.1522 5.2803C35.3037 4.51456 34.1542 4.08454 32.9559 4.08454C31.7575 4.08454 30.608 4.51456 29.7595 5.2803L18.5771 15.3859C18.3675 15.5753 18.2012 15.8002 18.0878 16.0478C17.9744 16.2954 17.916 16.5608 17.916 16.8288C17.916 17.0968 17.9744 17.3622 18.0878 17.6098C18.2012 17.8574 18.3675 18.0823 18.5771 18.2717C18.787 18.4611 18.9536 18.6862 19.0672 18.934C19.1809 19.1817 19.2394 19.4474 19.2394 19.7156C19.2394 19.9839 19.1809 20.2495 19.0672 20.4973C18.9536 20.7451 18.787 20.9702 18.5771 21.1596C18.1529 21.5425 17.5781 21.7575 16.9789 21.7575C16.3798 21.7575 15.805 21.5425 15.3808 21.1596C14.7513 20.5913 14.2519 19.9163 13.9112 19.1732C13.5705 18.43 13.3951 17.6333 13.3951 16.8288C13.3951 16.0242 13.5705 15.2276 13.9112 14.4844C14.2519 13.7413 14.7513 13.0662 15.3808 12.498L26.5679 2.39238C28.2646 0.860394 30.5636 0 32.9605 0C35.3575 0 37.6565 0.860394 39.3532 2.39238C40.1922 3.15005 40.8579 4.05001 41.312 5.04074C41.7662 6.03147 42 7.09352 42 8.1661C42 9.23868 41.7662 10.3007 41.312 11.2915C40.8579 12.2822 40.1922 13.1821 39.3532 13.9398L34.554 18.2738V18.2717Z" fill="white"/>
</g>
</svg>
