<svg width="23" height="22" viewBox="0 0 23 22" fill="none" xmlns="http://www.w3.org/2000/svg">
<g id="&#209;&#129;&#209;&#130;&#209;&#128;&#208;&#181;&#208;&#187;&#208;&#186;&#208;&#176;">
<path id="Vector" d="M17.39 12.6829L10.9012 19.2151C10.6094 19.5284 10.45 19.9437 10.457 20.3731C10.4639 20.8026 10.6365 21.2125 10.9383 21.516C11.2401 21.8196 11.6474 21.9931 12.074 21.9998C12.5006 22.0065 12.913 21.8458 13.224 21.5518L22.517 12.1983C22.6701 12.0451 22.7915 11.8629 22.8744 11.6623C22.9573 11.4616 23 11.2465 23 11.0292C23 10.8118 22.9573 10.5967 22.8744 10.396C22.7915 10.1954 22.6701 10.0132 22.517 9.85997L13.224 0.504862C13.0725 0.346915 12.8912 0.22093 12.6908 0.13426C12.4904 0.0475905 12.2748 0.00197053 12.0567 6.24392e-05C11.8386 -0.00184565 11.6223 0.0399963 11.4204 0.123147C11.2185 0.206298 11.0351 0.329092 10.8808 0.484364C10.7266 0.639636 10.6046 0.824278 10.522 1.02751C10.4394 1.23075 10.3979 1.44851 10.3997 1.66809C10.4016 1.88767 10.447 2.10467 10.5331 2.30643C10.6191 2.50819 10.7443 2.69067 10.9012 2.84323L17.39 9.37543H1.64274C1.20706 9.37543 0.789219 9.54966 0.481146 9.85979C0.173075 10.1699 0 10.5906 0 11.0292C0 11.4677 0.173075 11.8884 0.481146 12.1985C0.789219 12.5086 1.20706 12.6829 1.64274 12.6829H17.39Z" fill="white"/>
</g>
</svg>
