<svg width="32" height="30" viewBox="0 0 32 30" fill="none" xmlns="http://www.w3.org/2000/svg">
<g id="&#209;&#129;&#209;&#130;&#209;&#128;&#208;&#181;&#208;&#187;&#208;&#186;&#208;&#176;">
<path id="Vector" d="M7.70116 17.2948L16.6087 26.2024C17.0093 26.6296 17.228 27.1959 17.2185 27.7815C17.209 28.3671 16.972 28.9261 16.5578 29.3401C16.1435 29.7541 15.5844 29.9906 14.9988 29.9997C14.4132 30.0088 13.847 29.7897 13.42 29.3888L0.663071 16.6341C0.452932 16.4251 0.28617 16.1767 0.172376 15.9031C0.0585815 15.6295 0 15.3361 0 15.0397C0 14.7434 0.0585815 14.45 0.172376 14.1764C0.28617 13.9028 0.452932 13.6544 0.663071 13.4454L13.42 0.688448C13.6281 0.473065 13.8769 0.301269 14.152 0.183082C14.4271 0.0648961 14.7231 0.00268709 15.0225 8.51443e-05C15.3219 -0.0025168 15.6189 0.0545405 15.896 0.167928C16.1731 0.281315 16.4249 0.448761 16.6367 0.660496C16.8484 0.872232 17.0158 1.12402 17.1292 1.40116C17.2426 1.6783 17.2997 1.97524 17.2971 2.27467C17.2945 2.5741 17.2323 2.87001 17.1141 3.14514C16.9959 3.42027 16.8241 3.6691 16.6087 3.87713L7.70116 12.7847H29.3183C29.9164 12.7847 30.49 13.0223 30.9129 13.4452C31.3358 13.8681 31.5734 14.4417 31.5734 15.0397C31.5734 15.6378 31.3358 16.2114 30.9129 16.6343C30.49 17.0572 29.9164 17.2948 29.3183 17.2948H7.70116Z" fill="white"/>
</g>
</svg>
