<svg width="35" height="36" viewBox="0 0 35 36" fill="none" xmlns="http://www.w3.org/2000/svg">
<g id="&#209;&#130;&#208;&#181;&#208;&#187;&#208;&#181;&#209;&#132;&#208;&#190;&#208;&#189;">
<g id="Frame 68">
<path id="Vector" d="M19.1807 2.79194C19.3206 2.80218 19.4503 2.81242 19.5595 2.82778C27.2442 4.01043 30.7785 7.65054 31.7564 15.3949C31.7734 15.5264 31.7768 15.6868 31.7785 15.8557C31.7888 16.4616 31.8093 17.721 33.1609 17.7466H33.2018C33.6268 17.7466 33.963 17.6186 34.2053 17.366C34.6251 16.9274 34.5978 16.2738 34.5722 15.7482C34.5671 15.6185 34.562 15.4973 34.562 15.3898C34.6609 7.47135 27.804 0.28841 19.8923 0.0221854C19.8582 0.0221854 19.8275 0.0221854 19.7967 0.0273051C19.7656 0.0312331 19.7342 0.032944 19.7029 0.0324248C19.6227 0.0324248 19.5271 0.0255985 19.423 0.0187722C19.3001 0.0102394 19.1585 0 19.0134 0C17.754 0 17.5151 0.895948 17.4843 1.4301C17.4144 2.66395 18.6073 2.75099 19.1807 2.79194ZM31.386 25.404C31.2212 25.2786 31.0579 25.1512 30.8963 25.0217C30.0566 24.3459 29.1641 23.7247 28.3023 23.1223L27.7647 22.7468C26.6588 21.9704 25.6656 21.5932 24.727 21.5932C23.4607 21.5932 22.3583 22.2929 21.447 23.6701C21.0442 24.281 20.5545 24.578 19.952 24.578C19.5336 24.5634 19.123 24.4604 18.7472 24.2759C15.1805 22.6581 12.6309 20.1768 11.1735 16.9018C10.4686 15.3182 10.6973 14.284 11.9363 13.4409C12.6411 12.9631 13.95 12.074 13.8596 10.3691C13.7538 8.43556 9.48565 2.61446 7.68693 1.95402C6.91799 1.67353 6.0751 1.67112 5.30456 1.94719C3.23791 2.64177 1.75661 3.86367 1.01425 5.47638C0.297494 7.03618 0.331625 8.86733 1.10641 10.7719C3.35054 16.2789 6.50428 21.0812 10.4823 25.0439C14.375 28.9229 19.1602 32.0988 24.7031 34.4863C25.2031 34.7013 25.7271 34.8191 26.111 34.9044C26.2407 34.9334 26.3534 34.959 26.4353 34.9812C26.4804 34.9934 26.5268 34.9997 26.5735 35H26.6179C29.2255 35 32.3571 32.6176 33.3179 29.9025C34.1609 27.5235 32.6216 26.3477 31.386 25.404ZM20.3343 9.08406C19.8889 9.0943 18.9588 9.11819 18.6329 10.0636C18.4793 10.5073 18.498 10.8896 18.6875 11.2053C18.9639 11.6661 19.4947 11.8094 19.9759 11.888C21.7252 12.1678 22.6245 13.1337 22.8037 14.9308C22.8873 15.767 23.4522 16.3523 24.1741 16.3523C24.2289 16.3522 24.2836 16.3488 24.3379 16.3421C25.2083 16.2397 25.6298 15.5997 25.5922 14.441C25.6059 13.2327 24.9745 11.8606 23.8976 10.7684C22.8191 9.67283 21.5187 9.05505 20.3343 9.08406Z" fill="white"/>
<path id="Vector_2" d="M29.9833 14.6884C30.0242 9.75301 25.8209 5.2289 20.6142 4.60259C20.5101 4.59064 20.3975 4.57187 20.278 4.55139C20.0163 4.50129 19.7509 4.47275 19.4845 4.46606C18.4161 4.46606 18.1312 5.21695 18.0561 5.66237C17.9827 6.09754 18.0527 6.46446 18.2626 6.74945C18.6158 7.229 19.2387 7.31433 19.7387 7.38259C19.8838 7.40307 20.022 7.42184 20.1381 7.44744C24.8175 8.49356 26.3926 10.137 27.1623 14.7771C27.1811 14.8898 27.1896 15.0297 27.1999 15.1782C27.234 15.7328 27.3022 16.8865 28.5429 16.8865C28.6453 16.8865 28.7579 16.8779 28.874 16.8609C30.0276 16.6851 29.9918 15.6304 29.9747 15.1236C29.9696 14.9802 29.9645 14.8454 29.9781 14.755C29.9809 14.7323 29.982 14.7095 29.9816 14.6867L29.9833 14.6884Z" fill="white"/>
</g>
</g>
</svg>
